#N canvas 985 493 654 424 10;
#X declare -lib mrpeach;
#N canvas 1282 228 310 277 sine 1;
#X obj 49 32 inlet;
#X obj 191 32 inlet;
#X obj 126 228 outlet~;
#X obj 93 94 osc~;
#X obj 162 119 / 100;
#X obj 125 174 *~;
#X connect 0 0 3 0;
#X connect 1 0 4 0;
#X connect 3 0 5 0;
#X connect 4 0 5 1;
#X connect 5 0 2 0;
#X restore 67 151 pd sine;
#N canvas 1510 591 286 274 saw 1;
#X obj 51 30 inlet;
#X obj 193 30 inlet;
#X obj 128 226 outlet~;
#X obj 164 117 / 100;
#X obj 127 172 *~;
#X obj 95 92 phasor~;
#X connect 0 0 5 0;
#X connect 1 0 3 0;
#X connect 3 0 4 1;
#X connect 4 0 2 0;
#X connect 5 0 4 0;
#X restore 186 151 pd saw;
#N canvas 1067 188 289 300 tri 1;
#X obj 39 28 inlet;
#X obj 166 27 inlet;
#X obj 118 260 outlet~;
#X obj 188 158 / 100;
#X obj 117 226 *~;
#X obj 14 81 phasor~;
#X obj 88 79 phasor~;
#X msg 97 42 0;
#X obj 13 111 *~ 2;
#X obj 13 135 -~ 1;
#X obj 87 106 *~ 2;
#X obj 87 130 -~ 1;
#X obj 13 162 clip~ 0 1;
#X obj 89 160 clip~ 0 1;
#X obj 59 200 +~;
#X connect 0 0 5 0;
#X connect 0 0 6 0;
#X connect 1 0 3 0;
#X connect 3 0 4 1;
#X connect 4 0 2 0;
#X connect 5 0 8 0;
#X connect 6 0 10 0;
#X connect 7 0 6 1;
#X connect 7 0 5 1;
#X connect 8 0 9 0;
#X connect 9 0 12 0;
#X connect 10 0 11 0;
#X connect 11 0 13 0;
#X connect 12 0 14 0;
#X connect 13 0 14 1;
#X connect 14 0 4 0;
#X restore 301 153 pd tri;
#N canvas 1274 181 450 300 square 0;
#X obj 36 20 inlet;
#X obj 178 20 inlet;
#X obj 97 220 outlet~;
#X obj 149 107 / 100;
#X obj 96 166 *~;
#X obj 36 54 phasor~;
#X obj 35 93 expr~ $v1 > 0.5;
#X connect 0 0 5 0;
#X connect 1 0 3 0;
#X connect 3 0 4 1;
#X connect 4 0 2 0;
#X connect 5 0 6 0;
#X connect 6 0 4 0;
#X restore 235 153 pd square;
#N canvas 840 187 450 300 pulse 0;
#X obj 71 50 inlet;
#X obj 191 56 inlet;
#X obj 148 246 outlet~;
#X obj 162 143 / 100;
#X obj 147 192 *~;
#X obj 71 78 phasor~;
#X obj 70 105 -~ 0.99;
#X obj 69 129 clip~ 0 1;
#X obj 70 155 *~ 100;
#X connect 0 0 5 0;
#X connect 1 0 3 0;
#X connect 3 0 4 1;
#X connect 4 0 2 0;
#X connect 5 0 6 0;
#X connect 6 0 7 0;
#X connect 7 0 8 0;
#X connect 8 0 4 0;
#X restore 124 151 pd pulse;
#X obj 52 32 hsl 128 15 0 127 0 0 empty empty pitch -2 -8 0 10 -262144
-1 -1 6700 1;
#X obj 214 42 hsl 100 15 1 100 0 0 empty empty volume -2 -8 0 10 -262144
-1 -1 2500 1;
#X floatatom 139 82 5 0 0 0 - - -;
#X floatatom 186 82 5 0 0 0 - - -;
#X obj 349 246 tabwrite~ output;
#N canvas 0 0 450 300 (subpatch) 0;
#X array output 100 float 3;
#A 0 0 0 0 0 0 0 0 0 0 0 0 0 0 0 0 0 0 0 0 0 0 0 0 0 0 0 0 0 0 0 0
0 0 0 0 0 0 0 0 0 0 0 0 0 0 0 0 0 0 0 0 0 0 0 0 0 0 0 0 0 0 0 0 0 0
0 0 0 0 0 0 0 0 0 0 0 0 0 0 0 0 0 0 0 0 0 0 0 0 0 0 0 0 0 0 0 0 0 0
0;
#X coords 0 1 99 -1 200 140 1;
#X restore 401 28 graph;
#X obj 396 203 tgl 15 0 empty empty empty 17 7 0 10 -262144 -1 -1 1
1;
#X obj 363 224 metro 100;
#X obj 170 336 dac~;
#X obj 179 241 *~ 1;
#X obj 123 104 mtof;
#N canvas 920 431 450 300 receiver 1;
#X obj 34 69 unpackOSC;
#X obj 34 104 routeOSC /pitch;
#X obj 35 168 outlet;
#X obj 157 167 print "Received " + \$1;
#X obj 191 20 import mrpeach;
#X obj 33 33 udpreceive 9001;
#X obj 34 140 t f b;
#X obj 178 108 print;
#X connect 0 0 1 0;
#X connect 0 0 7 0;
#X connect 1 0 6 0;
#X connect 5 0 0 0;
#X connect 6 0 2 0;
#X connect 6 1 3 0;
#X restore -38 40 pd receiver;
#X connect 3 0 14 0;
#X connect 5 0 7 0;
#X connect 6 0 8 0;
#X connect 7 0 15 0;
#X connect 8 0 3 1;
#X connect 8 0 0 1;
#X connect 8 0 4 1;
#X connect 8 0 1 1;
#X connect 8 0 2 1;
#X connect 11 0 12 0;
#X connect 12 0 9 0;
#X connect 14 0 9 0;
#X connect 14 0 13 0;
#X connect 14 0 13 1;
#X connect 15 0 3 0;
#X connect 15 0 0 0;
#X connect 15 0 4 0;
#X connect 15 0 1 0;
#X connect 15 0 2 0;
#X connect 16 0 7 0;
