#N canvas 297 39 943 572 10;
#X declare -lib mrpeach;
#X obj 18 45 pddp/dsp;
#X obj 18 13 import mrpeach;
#X obj 18 115 udpreceive 9001;
#X obj 18 160 unpackOSC;
#X obj 21 292 routeOSC /pitch;
#X obj 33 343 mtof;
#X obj 56 209 print;
#X obj 36 529 dac~;
#X obj 92 437 routeOSC /volume;
#X obj 219 162 unpackOSC;
#X obj 222 294 routeOSC /pitch;
#X obj 234 345 mtof;
#X obj 257 211 print;
#X obj 237 531 dac~;
#X msg 306 350 0;
#X obj 293 439 routeOSC /volume;
#X obj 219 117 udpreceive 9002;
#X obj 396 155 unpackOSC;
#X obj 399 287 routeOSC /pitch;
#X obj 411 338 mtof;
#X obj 434 204 print;
#X obj 414 524 dac~;
#X msg 483 343 0;
#X obj 470 432 routeOSC /volume;
#X obj 421 479 *~;
#X obj 574 153 unpackOSC;
#X obj 577 285 routeOSC /pitch;
#X obj 589 336 mtof;
#X obj 612 202 print;
#X obj 592 522 dac~;
#X msg 661 341 0;
#X obj 648 430 routeOSC /volume;
#X obj 599 477 *~;
#X obj 775 151 unpackOSC;
#X obj 778 283 routeOSC /pitch;
#X obj 790 334 mtof;
#X obj 813 200 print;
#X obj 793 520 dac~;
#X msg 862 339 0;
#X obj 849 428 routeOSC /volume;
#X obj 800 475 *~;
#X obj 939 146 unpackOSC;
#X obj 942 278 routeOSC /pitch;
#X obj 954 329 mtof;
#X obj 977 195 print;
#X obj 957 515 dac~;
#X msg 1026 334 0;
#X obj 1013 423 routeOSC /volume;
#X obj 964 470 *~;
#X obj 396 110 udpreceive 9003;
#X obj 574 108 udpreceive 9004;
#X obj 775 106 udpreceive 9005;
#X obj 939 101 udpreceive 9006;
#X obj 40 481 *~;
#X obj 244 486 *~;
#X obj 26 386 phasor~;
#X obj 235 407 phasor~;
#X obj 412 400 phasor~;
#X obj 590 398 phasor~;
#X obj 791 396 phasor~;
#X obj 955 391 phasor~;
#X obj 1113 139 unpackOSC;
#X obj 1116 271 routeOSC /pitch;
#X obj 1128 322 mtof;
#X obj 1151 188 print;
#X obj 1131 508 dac~;
#X msg 1200 327 0;
#X obj 1187 416 routeOSC /volume;
#X obj 1290 132 unpackOSC;
#X obj 1293 264 routeOSC /pitch;
#X obj 1305 315 mtof;
#X obj 1328 181 print;
#X obj 1308 501 dac~;
#X msg 1377 320 0;
#X obj 1364 409 routeOSC /volume;
#X obj 1315 456 *~;
#X obj 1138 463 *~;
#X obj 1129 384 phasor~;
#X obj 1306 377 phasor~;
#X obj 1113 94 udpreceive 9007;
#X obj 1290 87 udpreceive 9008;
#X connect 2 0 3 0;
#X connect 3 0 4 0;
#X connect 3 0 6 0;
#X connect 3 0 8 0;
#X connect 4 0 5 0;
#X connect 5 0 55 0;
#X connect 8 0 53 1;
#X connect 9 0 10 0;
#X connect 9 0 12 0;
#X connect 9 0 15 0;
#X connect 10 0 11 0;
#X connect 11 0 56 0;
#X connect 14 0 56 0;
#X connect 15 0 54 1;
#X connect 16 0 9 0;
#X connect 17 0 18 0;
#X connect 17 0 20 0;
#X connect 17 0 23 0;
#X connect 18 0 19 0;
#X connect 19 0 57 0;
#X connect 22 0 57 0;
#X connect 23 0 24 1;
#X connect 24 0 21 0;
#X connect 24 0 21 1;
#X connect 25 0 26 0;
#X connect 25 0 28 0;
#X connect 25 0 31 0;
#X connect 26 0 27 0;
#X connect 27 0 58 0;
#X connect 30 0 58 0;
#X connect 31 0 32 1;
#X connect 32 0 29 0;
#X connect 32 0 29 1;
#X connect 33 0 34 0;
#X connect 33 0 36 0;
#X connect 33 0 39 0;
#X connect 34 0 35 0;
#X connect 35 0 59 0;
#X connect 38 0 59 0;
#X connect 39 0 40 1;
#X connect 40 0 37 0;
#X connect 40 0 37 1;
#X connect 41 0 42 0;
#X connect 41 0 44 0;
#X connect 41 0 47 0;
#X connect 42 0 43 0;
#X connect 43 0 60 0;
#X connect 46 0 60 0;
#X connect 47 0 48 1;
#X connect 48 0 45 0;
#X connect 48 0 45 1;
#X connect 49 0 17 0;
#X connect 50 0 25 0;
#X connect 51 0 33 0;
#X connect 52 0 41 0;
#X connect 53 0 7 0;
#X connect 53 0 7 1;
#X connect 54 0 13 0;
#X connect 54 0 13 1;
#X connect 55 0 53 0;
#X connect 56 0 54 0;
#X connect 57 0 24 0;
#X connect 58 0 32 0;
#X connect 59 0 40 0;
#X connect 60 0 48 0;
#X connect 61 0 62 0;
#X connect 61 0 64 0;
#X connect 61 0 67 0;
#X connect 62 0 63 0;
#X connect 63 0 77 0;
#X connect 66 0 77 0;
#X connect 67 0 76 1;
#X connect 68 0 69 0;
#X connect 68 0 71 0;
#X connect 68 0 74 0;
#X connect 69 0 70 0;
#X connect 70 0 78 0;
#X connect 73 0 78 0;
#X connect 74 0 75 1;
#X connect 75 0 72 0;
#X connect 75 0 72 1;
#X connect 76 0 65 0;
#X connect 76 0 65 1;
#X connect 77 0 76 0;
#X connect 78 0 75 0;
#X connect 79 0 61 0;
#X connect 80 0 68 0;
